<svg width="667" height="375" xmlns="http://www.w3.org/2000/svg" xmlns:xlink="http://www.w3.org/1999/xlink" xml:space="preserve" overflow="hidden"><defs><clipPath id="clip0"><rect x="0" y="0" width="667" height="375"/></clipPath><linearGradient x1="173.096" y1="-97.3667" x2="493.571" y2="472.367" gradientUnits="userSpaceOnUse" spreadMethod="reflect" id="fill1"><stop offset="0" stop-color="#4D4EE6" stop-opacity="0.4"/><stop offset="0.00584795" stop-color="#4E4DE5" stop-opacity="0.4"/><stop offset="0.0116959" stop-color="#504DE5" stop-opacity="0.4"/><stop offset="0.0175439" stop-color="#524DE5" stop-opacity="0.4"/><stop offset="0.0233918" stop-color="#544DE5" stop-opacity="0.4"/><stop offset="0.0292398" stop-color="#564DE5" stop-opacity="0.4"/><stop offset="0.0350877" stop-color="#584DE5" stop-opacity="0.4"/><stop offset="0.0409357" stop-color="#594DE5" stop-opacity="0.4"/><stop offset="0.0467836" stop-color="#5B4DE5" stop-opacity="0.4"/><stop offset="0.0526316" stop-color="#5D4DE5" stop-opacity="0.4"/><stop offset="0.0584795" stop-color="#5F4DE5" stop-opacity="0.4"/><stop offset="0.0643275" stop-color="#614DE5" stop-opacity="0.4"/><stop offset="0.0701754" stop-color="#624DE5" stop-opacity="0.4"/><stop offset="0.0760234" stop-color="#644DE5" stop-opacity="0.4"/><stop offset="0.0818713" stop-color="#664DE5" stop-opacity="0.4"/><stop offset="0.0877193" stop-color="#684DE5" stop-opacity="0.4"/><stop offset="0.0935673" stop-color="#694DE5" stop-opacity="0.4"/><stop offset="0.0994152" stop-color="#6B4CE5" stop-opacity="0.4"/><stop offset="0.105263" stop-color="#6D4CE4" stop-opacity="0.4"/><stop offset="0.111111" stop-color="#6F4CE4" stop-opacity="0.4"/><stop offset="0.116959" stop-color="#704CE4" stop-opacity="0.4"/><stop offset="0.122807" stop-color="#724CE4" stop-opacity="0.4"/><stop offset="0.128655" stop-color="#744CE4" stop-opacity="0.4"/><stop offset="0.134503" stop-color="#754CE4" stop-opacity="0.4"/><stop offset="0.140351" stop-color="#774CE4" stop-opacity="0.4"/><stop offset="0.146199" stop-color="#794BE4" stop-opacity="0.4"/><stop offset="0.152047" stop-color="#7A4BE3" stop-opacity="0.4"/><stop offset="0.157895" stop-color="#7C4BE3" stop-opacity="0.4"/><stop offset="0.163743" stop-color="#7D4BE3" stop-opacity="0.4"/><stop offset="0.169591" stop-color="#7F4BE3" stop-opacity="0.4"/><stop offset="0.175439" stop-color="#814BE3" stop-opacity="0.4"/><stop offset="0.181287" stop-color="#824AE3" stop-opacity="0.4"/><stop offset="0.187135" stop-color="#844AE2" stop-opacity="0.4"/><stop offset="0.192982" stop-color="#854AE2" stop-opacity="0.4"/><stop offset="0.19883" stop-color="#874AE2" stop-opacity="0.4"/><stop offset="0.204678" stop-color="#894AE2" stop-opacity="0.4"/><stop offset="0.210526" stop-color="#8A49E2" stop-opacity="0.4"/><stop offset="0.216374" stop-color="#8C49E2" stop-opacity="0.4"/><stop offset="0.222222" stop-color="#8D49E1" stop-opacity="0.4"/><stop offset="0.22807" stop-color="#8F49E1" stop-opacity="0.4"/><stop offset="0.233918" stop-color="#9048E1" stop-opacity="0.4"/><stop offset="0.239766" stop-color="#9248E1" stop-opacity="0.4"/><stop offset="0.245614" stop-color="#9348E0" stop-opacity="0.4"/><stop offset="0.251462" stop-color="#9548E0" stop-opacity="0.4"/><stop offset="0.25731" stop-color="#9647E0" stop-opacity="0.4"/><stop offset="0.263158" stop-color="#9747E0" stop-opacity="0.4"/><stop offset="0.269006" stop-color="#9947E0" stop-opacity="0.4"/><stop offset="0.274854" stop-color="#9A47DF" stop-opacity="0.4"/><stop offset="0.280702" stop-color="#9C46DF" stop-opacity="0.4"/><stop offset="0.28655" stop-color="#9D46DF" stop-opacity="0.4"/><stop offset="0.292398" stop-color="#9F46DF" stop-opacity="0.4"/><stop offset="0.298246" stop-color="#A045DE" stop-opacity="0.4"/><stop offset="0.304094" stop-color="#A145DE" stop-opacity="0.4"/><stop offset="0.309942" stop-color="#A345DE" stop-opacity="0.4"/><stop offset="0.315789" stop-color="#A445DD" stop-opacity="0.4"/><stop offset="0.321637" stop-color="#A544DD" stop-opacity="0.4"/><stop offset="0.327485" stop-color="#A744DD" stop-opacity="0.4"/><stop offset="0.333333" stop-color="#A844DD" stop-opacity="0.4"/><stop offset="0.339181" stop-color="#A943DC" stop-opacity="0.4"/><stop offset="0.345029" stop-color="#AB43DC" stop-opacity="0.4"/><stop offset="0.350877" stop-color="#AC43DC" stop-opacity="0.4"/><stop offset="0.356725" stop-color="#AD42DB" stop-opacity="0.4"/><stop offset="0.362573" stop-color="#AF42DB" stop-opacity="0.4"/><stop offset="0.368421" stop-color="#B042DB" stop-opacity="0.4"/><stop offset="0.374269" stop-color="#B141DA" stop-opacity="0.4"/><stop offset="0.380117" stop-color="#B241DA" stop-opacity="0.4"/><stop offset="0.385965" stop-color="#B440DA" stop-opacity="0.4"/><stop offset="0.391813" stop-color="#B540D9" stop-opacity="0.4"/><stop offset="0.397661" stop-color="#B640D9" stop-opacity="0.4"/><stop offset="0.403509" stop-color="#B73FD9" stop-opacity="0.4"/><stop offset="0.409357" stop-color="#B83FD8" stop-opacity="0.4"/><stop offset="0.415205" stop-color="#BA3ED8" stop-opacity="0.4"/><stop offset="0.421053" stop-color="#BB3ED8" stop-opacity="0.4"/><stop offset="0.426901" stop-color="#BC3ED7" stop-opacity="0.4"/><stop offset="0.432749" stop-color="#BD3DD7" stop-opacity="0.4"/><stop offset="0.438596" stop-color="#BE3DD7" stop-opacity="0.4"/><stop offset="0.444444" stop-color="#BF3CD6" stop-opacity="0.4"/><stop offset="0.450292" stop-color="#C03CD6" stop-opacity="0.4"/><stop offset="0.45614" stop-color="#C23CD5" stop-opacity="0.4"/><stop offset="0.461988" stop-color="#C33BD5" stop-opacity="0.4"/><stop offset="0.467836" stop-color="#C43BD5" stop-opacity="0.4"/><stop offset="0.473684" stop-color="#C53AD4" stop-opacity="0.4"/><stop offset="0.479532" stop-color="#C63AD4" stop-opacity="0.4"/><stop offset="0.48538" stop-color="#C739D3" stop-opacity="0.4"/><stop offset="0.491228" stop-color="#C839D3" stop-opacity="0.4"/><stop offset="0.497076" stop-color="#C938D3" stop-opacity="0.4"/><stop offset="0.502924" stop-color="#CA38D2" stop-opacity="0.4"/><stop offset="0.508772" stop-color="#CB38D2" stop-opacity="0.4"/><stop offset="0.51462" stop-color="#CC37D1" stop-opacity="0.4"/><stop offset="0.520468" stop-color="#CD37D1" stop-opacity="0.4"/><stop offset="0.526316" stop-color="#CE36D0" stop-opacity="0.4"/><stop offset="0.532164" stop-color="#CF36D0" stop-opacity="0.4"/><stop offset="0.538012" stop-color="#D035D0" stop-opacity="0.4"/><stop offset="0.54386" stop-color="#D135CF" stop-opacity="0.4"/><stop offset="0.549708" stop-color="#D234CF" stop-opacity="0.4"/><stop offset="0.555556" stop-color="#D334CE" stop-opacity="0.4"/><stop offset="0.561404" stop-color="#D433CE" stop-opacity="0.4"/><stop offset="0.567251" stop-color="#D533CD" stop-opacity="0.4"/><stop offset="0.573099" stop-color="#D632CD" stop-opacity="0.4"/><stop offset="0.578947" stop-color="#D732CC" stop-opacity="0.4"/><stop offset="0.584795" stop-color="#D731CC" stop-opacity="0.4"/><stop offset="0.590643" stop-color="#D830CB" stop-opacity="0.4"/><stop offset="0.596491" stop-color="#D930CB" stop-opacity="0.4"/><stop offset="0.602339" stop-color="#DA2FCA" stop-opacity="0.4"/><stop offset="0.608187" stop-color="#DB2FCA" stop-opacity="0.4"/><stop offset="0.614035" stop-color="#DC2EC9" stop-opacity="0.4"/><stop offset="0.619883" stop-color="#DC2EC9" stop-opacity="0.4"/><stop offset="0.625731" stop-color="#DD2DC8" stop-opacity="0.4"/><stop offset="0.631579" stop-color="#DE2DC8" stop-opacity="0.4"/><stop offset="0.637427" stop-color="#DF2CC7" stop-opacity="0.4"/><stop offset="0.643275" stop-color="#E02BC7" stop-opacity="0.4"/><stop offset="0.649123" stop-color="#E02BC6" stop-opacity="0.4"/><stop offset="0.654971" stop-color="#E12AC6" stop-opacity="0.4"/><stop offset="0.660819" stop-color="#E22AC5" stop-opacity="0.4"/><stop offset="0.666667" stop-color="#E329C5" stop-opacity="0.4"/><stop offset="0.672515" stop-color="#E328C4" stop-opacity="0.4"/><stop offset="0.678363" stop-color="#E428C4" stop-opacity="0.4"/><stop offset="0.684211" stop-color="#E527C3" stop-opacity="0.4"/><stop offset="0.690058" stop-color="#E527C3" stop-opacity="0.4"/><stop offset="0.695906" stop-color="#E626C2" stop-opacity="0.4"/><stop offset="0.701754" stop-color="#E725C1" stop-opacity="0.4"/><stop offset="0.707602" stop-color="#E725C1" stop-opacity="0.4"/><stop offset="0.71345" stop-color="#E824C0" stop-opacity="0.4"/><stop offset="0.719298" stop-color="#E923C0" stop-opacity="0.4"/><stop offset="0.725146" stop-color="#E923BF" stop-opacity="0.4"/><stop offset="0.730994" stop-color="#EA22BF" stop-opacity="0.4"/><stop offset="0.736842" stop-color="#EA22BE" stop-opacity="0.4"/><stop offset="0.74269" stop-color="#EB21BD" stop-opacity="0.4"/><stop offset="0.748538" stop-color="#EC20BD" stop-opacity="0.4"/><stop offset="0.754386" stop-color="#EC20BC" stop-opacity="0.4"/><stop offset="0.760234" stop-color="#ED1FBC" stop-opacity="0.4"/><stop offset="0.766082" stop-color="#ED1EBB" stop-opacity="0.4"/><stop offset="0.77193" stop-color="#EE1DBA" stop-opacity="0.4"/><stop offset="0.777778" stop-color="#EE1DBA" stop-opacity="0.4"/><stop offset="0.783626" stop-color="#EF1CB9" stop-opacity="0.4"/><stop offset="0.789474" stop-color="#EF1BB9" stop-opacity="0.4"/><stop offset="0.795322" stop-color="#F01BB8" stop-opacity="0.4"/><stop offset="0.80117" stop-color="#F01AB7" stop-opacity="0.4"/><stop offset="0.807018" stop-color="#F119B7" stop-opacity="0.4"/><stop offset="0.812865" stop-color="#F119B6" stop-opacity="0.4"/><stop offset="0.818713" stop-color="#F218B5" stop-opacity="0.4"/><stop offset="0.824561" stop-color="#F217B5" stop-opacity="0.4"/><stop offset="0.830409" stop-color="#F216B4" stop-opacity="0.4"/><stop offset="0.836257" stop-color="#F316B3" stop-opacity="0.4"/><stop offset="0.842105" stop-color="#F315B3" stop-opacity="0.4"/><stop offset="0.847953" stop-color="#F314B2" stop-opacity="0.4"/><stop offset="0.853801" stop-color="#F414B1" stop-opacity="0.4"/><stop offset="0.859649" stop-color="#F413B1" stop-opacity="0.4"/><stop offset="0.865497" stop-color="#F512B0" stop-opacity="0.4"/><stop offset="0.871345" stop-color="#F511AF" stop-opacity="0.4"/><stop offset="0.877193" stop-color="#F510AF" stop-opacity="0.4"/><stop offset="0.883041" stop-color="#F510AE" stop-opacity="0.4"/><stop offset="0.888889" stop-color="#F60FAD" stop-opacity="0.4"/><stop offset="0.894737" stop-color="#F60EAD" stop-opacity="0.4"/><stop offset="0.900585" stop-color="#F60DAC" stop-opacity="0.4"/><stop offset="0.906433" stop-color="#F60DAB" stop-opacity="0.4"/><stop offset="0.912281" stop-color="#F70CAB" stop-opacity="0.4"/><stop offset="0.918129" stop-color="#F70BAA" stop-opacity="0.4"/><stop offset="0.923977" stop-color="#F70AA9" stop-opacity="0.4"/><stop offset="0.929825" stop-color="#F709A8" stop-opacity="0.4"/><stop offset="0.935673" stop-color="#F709A8" stop-opacity="0.4"/><stop offset="0.94152" stop-color="#F808A7" stop-opacity="0.4"/><stop offset="0.947368" stop-color="#F807A6" stop-opacity="0.4"/><stop offset="0.953216" stop-color="#F806A6" stop-opacity="0.4"/><stop offset="0.959064" stop-color="#F805A5" stop-opacity="0.4"/><stop offset="0.964912" stop-color="#F805A4" stop-opacity="0.4"/><stop offset="0.97076" stop-color="#F804A3" stop-opacity="0.4"/><stop offset="0.976608" stop-color="#F803A3" stop-opacity="0.4"/><stop offset="0.982456" stop-color="#F802A2" stop-opacity="0.4"/><stop offset="0.988304" stop-color="#F801A1" stop-opacity="0.4"/><stop offset="0.994152" stop-color="#F800A0" stop-opacity="0.4"/><stop offset="1" stop-color="#F900A0" stop-opacity="0.4"/></linearGradient><linearGradient x1="173.096" y1="-97.3667" x2="493.571" y2="472.367" gradientUnits="userSpaceOnUse" spreadMethod="reflect" id="fill2"><stop offset="0" stop-color="#4D4EE6" stop-opacity="0.4"/><stop offset="0.00584795" stop-color="#4E4DE5" stop-opacity="0.4"/><stop offset="0.0116959" stop-color="#504DE5" stop-opacity="0.4"/><stop offset="0.0175439" stop-color="#524DE5" stop-opacity="0.4"/><stop offset="0.0233918" stop-color="#544DE5" stop-opacity="0.4"/><stop offset="0.0292398" stop-color="#564DE5" stop-opacity="0.4"/><stop offset="0.0350877" stop-color="#584DE5" stop-opacity="0.4"/><stop offset="0.0409357" stop-color="#594DE5" stop-opacity="0.4"/><stop offset="0.0467836" stop-color="#5B4DE5" stop-opacity="0.4"/><stop offset="0.0526316" stop-color="#5D4DE5" stop-opacity="0.4"/><stop offset="0.0584795" stop-color="#5F4DE5" stop-opacity="0.4"/><stop offset="0.0643275" stop-color="#614DE5" stop-opacity="0.4"/><stop offset="0.0701754" stop-color="#624DE5" stop-opacity="0.4"/><stop offset="0.0760234" stop-color="#644DE5" stop-opacity="0.4"/><stop offset="0.0818713" stop-color="#664DE5" stop-opacity="0.4"/><stop offset="0.0877193" stop-color="#684DE5" stop-opacity="0.4"/><stop offset="0.0935673" stop-color="#694DE5" stop-opacity="0.4"/><stop offset="0.0994152" stop-color="#6B4CE5" stop-opacity="0.4"/><stop offset="0.105263" stop-color="#6D4CE4" stop-opacity="0.4"/><stop offset="0.111111" stop-color="#6F4CE4" stop-opacity="0.4"/><stop offset="0.116959" stop-color="#704CE4" stop-opacity="0.4"/><stop offset="0.122807" stop-color="#724CE4" stop-opacity="0.4"/><stop offset="0.128655" stop-color="#744CE4" stop-opacity="0.4"/><stop offset="0.134503" stop-color="#754CE4" stop-opacity="0.4"/><stop offset="0.140351" stop-color="#774CE4" stop-opacity="0.4"/><stop offset="0.146199" stop-color="#794BE4" stop-opacity="0.4"/><stop offset="0.152047" stop-color="#7A4BE3" stop-opacity="0.4"/><stop offset="0.157895" stop-color="#7C4BE3" stop-opacity="0.4"/><stop offset="0.163743" stop-color="#7D4BE3" stop-opacity="0.4"/><stop offset="0.169591" stop-color="#7F4BE3" stop-opacity="0.4"/><stop offset="0.175439" stop-color="#814BE3" stop-opacity="0.4"/><stop offset="0.181287" stop-color="#824AE3" stop-opacity="0.4"/><stop offset="0.187135" stop-color="#844AE2" stop-opacity="0.4"/><stop offset="0.192982" stop-color="#854AE2" stop-opacity="0.4"/><stop offset="0.19883" stop-color="#874AE2" stop-opacity="0.4"/><stop offset="0.204678" stop-color="#894AE2" stop-opacity="0.4"/><stop offset="0.210526" stop-color="#8A49E2" stop-opacity="0.4"/><stop offset="0.216374" stop-color="#8C49E2" stop-opacity="0.4"/><stop offset="0.222222" stop-color="#8D49E1" stop-opacity="0.4"/><stop offset="0.22807" stop-color="#8F49E1" stop-opacity="0.4"/><stop offset="0.233918" stop-color="#9048E1" stop-opacity="0.4"/><stop offset="0.239766" stop-color="#9248E1" stop-opacity="0.4"/><stop offset="0.245614" stop-color="#9348E0" stop-opacity="0.4"/><stop offset="0.251462" stop-color="#9548E0" stop-opacity="0.4"/><stop offset="0.25731" stop-color="#9647E0" stop-opacity="0.4"/><stop offset="0.263158" stop-color="#9747E0" stop-opacity="0.4"/><stop offset="0.269006" stop-color="#9947E0" stop-opacity="0.4"/><stop offset="0.274854" stop-color="#9A47DF" stop-opacity="0.4"/><stop offset="0.280702" stop-color="#9C46DF" stop-opacity="0.4"/><stop offset="0.28655" stop-color="#9D46DF" stop-opacity="0.4"/><stop offset="0.292398" stop-color="#9F46DF" stop-opacity="0.4"/><stop offset="0.298246" stop-color="#A045DE" stop-opacity="0.4"/><stop offset="0.304094" stop-color="#A145DE" stop-opacity="0.4"/><stop offset="0.309942" stop-color="#A345DE" stop-opacity="0.4"/><stop offset="0.315789" stop-color="#A445DD" stop-opacity="0.4"/><stop offset="0.321637" stop-color="#A544DD" stop-opacity="0.4"/><stop offset="0.327485" stop-color="#A744DD" stop-opacity="0.4"/><stop offset="0.333333" stop-color="#A844DD" stop-opacity="0.4"/><stop offset="0.339181" stop-color="#A943DC" stop-opacity="0.4"/><stop offset="0.345029" stop-color="#AB43DC" stop-opacity="0.4"/><stop offset="0.350877" stop-color="#AC43DC" stop-opacity="0.4"/><stop offset="0.356725" stop-color="#AD42DB" stop-opacity="0.4"/><stop offset="0.362573" stop-color="#AF42DB" stop-opacity="0.4"/><stop offset="0.368421" stop-color="#B042DB" stop-opacity="0.4"/><stop offset="0.374269" stop-color="#B141DA" stop-opacity="0.4"/><stop offset="0.380117" stop-color="#B241DA" stop-opacity="0.4"/><stop offset="0.385965" stop-color="#B440DA" stop-opacity="0.4"/><stop offset="0.391813" stop-color="#B540D9" stop-opacity="0.4"/><stop offset="0.397661" stop-color="#B640D9" stop-opacity="0.4"/><stop offset="0.403509" stop-color="#B73FD9" stop-opacity="0.4"/><stop offset="0.409357" stop-color="#B83FD8" stop-opacity="0.4"/><stop offset="0.415205" stop-color="#BA3ED8" stop-opacity="0.4"/><stop offset="0.421053" stop-color="#BB3ED8" stop-opacity="0.4"/><stop offset="0.426901" stop-color="#BC3ED7" stop-opacity="0.4"/><stop offset="0.432749" stop-color="#BD3DD7" stop-opacity="0.4"/><stop offset="0.438596" stop-color="#BE3DD7" stop-opacity="0.4"/><stop offset="0.444444" stop-color="#BF3CD6" stop-opacity="0.4"/><stop offset="0.450292" stop-color="#C03CD6" stop-opacity="0.4"/><stop offset="0.45614" stop-color="#C23CD5" stop-opacity="0.4"/><stop offset="0.461988" stop-color="#C33BD5" stop-opacity="0.4"/><stop offset="0.467836" stop-color="#C43BD5" stop-opacity="0.4"/><stop offset="0.473684" stop-color="#C53AD4" stop-opacity="0.4"/><stop offset="0.479532" stop-color="#C63AD4" stop-opacity="0.4"/><stop offset="0.48538" stop-color="#C739D3" stop-opacity="0.4"/><stop offset="0.491228" stop-color="#C839D3" stop-opacity="0.4"/><stop offset="0.497076" stop-color="#C938D3" stop-opacity="0.4"/><stop offset="0.502924" stop-color="#CA38D2" stop-opacity="0.4"/><stop offset="0.508772" stop-color="#CB38D2" stop-opacity="0.4"/><stop offset="0.51462" stop-color="#CC37D1" stop-opacity="0.4"/><stop offset="0.520468" stop-color="#CD37D1" stop-opacity="0.4"/><stop offset="0.526316" stop-color="#CE36D0" stop-opacity="0.4"/><stop offset="0.532164" stop-color="#CF36D0" stop-opacity="0.4"/><stop offset="0.538012" stop-color="#D035D0" stop-opacity="0.4"/><stop offset="0.54386" stop-color="#D135CF" stop-opacity="0.4"/><stop offset="0.549708" stop-color="#D234CF" stop-opacity="0.4"/><stop offset="0.555556" stop-color="#D334CE" stop-opacity="0.4"/><stop offset="0.561404" stop-color="#D433CE" stop-opacity="0.4"/><stop offset="0.567251" stop-color="#D533CD" stop-opacity="0.4"/><stop offset="0.573099" stop-color="#D632CD" stop-opacity="0.4"/><stop offset="0.578947" stop-color="#D732CC" stop-opacity="0.4"/><stop offset="0.584795" stop-color="#D731CC" stop-opacity="0.4"/><stop offset="0.590643" stop-color="#D830CB" stop-opacity="0.4"/><stop offset="0.596491" stop-color="#D930CB" stop-opacity="0.4"/><stop offset="0.602339" stop-color="#DA2FCA" stop-opacity="0.4"/><stop offset="0.608187" stop-color="#DB2FCA" stop-opacity="0.4"/><stop offset="0.614035" stop-color="#DC2EC9" stop-opacity="0.4"/><stop offset="0.619883" stop-color="#DC2EC9" stop-opacity="0.4"/><stop offset="0.625731" stop-color="#DD2DC8" stop-opacity="0.4"/><stop offset="0.631579" stop-color="#DE2DC8" stop-opacity="0.4"/><stop offset="0.637427" stop-color="#DF2CC7" stop-opacity="0.4"/><stop offset="0.643275" stop-color="#E02BC7" stop-opacity="0.4"/><stop offset="0.649123" stop-color="#E02BC6" stop-opacity="0.4"/><stop offset="0.654971" stop-color="#E12AC6" stop-opacity="0.4"/><stop offset="0.660819" stop-color="#E22AC5" stop-opacity="0.4"/><stop offset="0.666667" stop-color="#E329C5" stop-opacity="0.4"/><stop offset="0.672515" stop-color="#E328C4" stop-opacity="0.4"/><stop offset="0.678363" stop-color="#E428C4" stop-opacity="0.4"/><stop offset="0.684211" stop-color="#E527C3" stop-opacity="0.4"/><stop offset="0.690058" stop-color="#E527C3" stop-opacity="0.4"/><stop offset="0.695906" stop-color="#E626C2" stop-opacity="0.4"/><stop offset="0.701754" stop-color="#E725C1" stop-opacity="0.4"/><stop offset="0.707602" stop-color="#E725C1" stop-opacity="0.4"/><stop offset="0.71345" stop-color="#E824C0" stop-opacity="0.4"/><stop offset="0.719298" stop-color="#E923C0" stop-opacity="0.4"/><stop offset="0.725146" stop-color="#E923BF" stop-opacity="0.4"/><stop offset="0.730994" stop-color="#EA22BF" stop-opacity="0.4"/><stop offset="0.736842" stop-color="#EA22BE" stop-opacity="0.4"/><stop offset="0.74269" stop-color="#EB21BD" stop-opacity="0.4"/><stop offset="0.748538" stop-color="#EC20BD" stop-opacity="0.4"/><stop offset="0.754386" stop-color="#EC20BC" stop-opacity="0.4"/><stop offset="0.760234" stop-color="#ED1FBC" stop-opacity="0.4"/><stop offset="0.766082" stop-color="#ED1EBB" stop-opacity="0.4"/><stop offset="0.77193" stop-color="#EE1DBA" stop-opacity="0.4"/><stop offset="0.777778" stop-color="#EE1DBA" stop-opacity="0.4"/><stop offset="0.783626" stop-color="#EF1CB9" stop-opacity="0.4"/><stop offset="0.789474" stop-color="#EF1BB9" stop-opacity="0.4"/><stop offset="0.795322" stop-color="#F01BB8" stop-opacity="0.4"/><stop offset="0.80117" stop-color="#F01AB7" stop-opacity="0.4"/><stop offset="0.807018" stop-color="#F119B7" stop-opacity="0.4"/><stop offset="0.812865" stop-color="#F119B6" stop-opacity="0.4"/><stop offset="0.818713" stop-color="#F218B5" stop-opacity="0.4"/><stop offset="0.824561" stop-color="#F217B5" stop-opacity="0.4"/><stop offset="0.830409" stop-color="#F216B4" stop-opacity="0.4"/><stop offset="0.836257" stop-color="#F316B3" stop-opacity="0.4"/><stop offset="0.842105" stop-color="#F315B3" stop-opacity="0.4"/><stop offset="0.847953" stop-color="#F314B2" stop-opacity="0.4"/><stop offset="0.853801" stop-color="#F414B1" stop-opacity="0.4"/><stop offset="0.859649" stop-color="#F413B1" stop-opacity="0.4"/><stop offset="0.865497" stop-color="#F512B0" stop-opacity="0.4"/><stop offset="0.871345" stop-color="#F511AF" stop-opacity="0.4"/><stop offset="0.877193" stop-color="#F510AF" stop-opacity="0.4"/><stop offset="0.883041" stop-color="#F510AE" stop-opacity="0.4"/><stop offset="0.888889" stop-color="#F60FAD" stop-opacity="0.4"/><stop offset="0.894737" stop-color="#F60EAD" stop-opacity="0.4"/><stop offset="0.900585" stop-color="#F60DAC" stop-opacity="0.4"/><stop offset="0.906433" stop-color="#F60DAB" stop-opacity="0.4"/><stop offset="0.912281" stop-color="#F70CAB" stop-opacity="0.4"/><stop offset="0.918129" stop-color="#F70BAA" stop-opacity="0.4"/><stop offset="0.923977" stop-color="#F70AA9" stop-opacity="0.4"/><stop offset="0.929825" stop-color="#F709A8" stop-opacity="0.4"/><stop offset="0.935673" stop-color="#F709A8" stop-opacity="0.4"/><stop offset="0.94152" stop-color="#F808A7" stop-opacity="0.4"/><stop offset="0.947368" stop-color="#F807A6" stop-opacity="0.4"/><stop offset="0.953216" stop-color="#F806A6" stop-opacity="0.4"/><stop offset="0.959064" stop-color="#F805A5" stop-opacity="0.4"/><stop offset="0.964912" stop-color="#F805A4" stop-opacity="0.4"/><stop offset="0.97076" stop-color="#F804A3" stop-opacity="0.4"/><stop offset="0.976608" stop-color="#F803A3" stop-opacity="0.4"/><stop offset="0.982456" stop-color="#F802A2" stop-opacity="0.4"/><stop offset="0.988304" stop-color="#F801A1" stop-opacity="0.4"/><stop offset="0.994152" stop-color="#F800A0" stop-opacity="0.4"/><stop offset="1" stop-color="#F900A0" stop-opacity="0.4"/></linearGradient><clipPath id="clip3"><rect x="43" y="41" width="22" height="22"/></clipPath><clipPath id="clip4"><rect x="43" y="41" width="22" height="22"/></clipPath><clipPath id="clip5"><rect x="43" y="41" width="22" height="22"/></clipPath><clipPath id="clip6"><rect x="43" y="89" width="22" height="21"/></clipPath><clipPath id="clip7"><rect x="43" y="89" width="22" height="21"/></clipPath><clipPath id="clip8"><rect x="43" y="89" width="22" height="21"/></clipPath><clipPath id="clip9"><rect x="43" y="136" width="22" height="22"/></clipPath><clipPath id="clip10"><rect x="43" y="136" width="22" height="22"/></clipPath><clipPath id="clip11"><rect x="43" y="136" width="22" height="22"/></clipPath><clipPath id="clip12"><rect x="43" y="184" width="22" height="21"/></clipPath><clipPath id="clip13"><rect x="43" y="184" width="22" height="21"/></clipPath><clipPath id="clip14"><rect x="43" y="184" width="22" height="21"/></clipPath><clipPath id="clip15"><rect x="43" y="231" width="22" height="22"/></clipPath><clipPath id="clip16"><rect x="43" y="231" width="22" height="22"/></clipPath><clipPath id="clip17"><rect x="43" y="231" width="22" height="22"/></clipPath><clipPath id="clip18"><rect x="43" y="279" width="22" height="21"/></clipPath><clipPath id="clip19"><rect x="43" y="279" width="22" height="21"/></clipPath><clipPath id="clip20"><rect x="43" y="279" width="22" height="21"/></clipPath><clipPath id="clip21"><rect x="43" y="326" width="22" height="22"/></clipPath><clipPath id="clip22"><rect x="43" y="326" width="22" height="22"/></clipPath><clipPath id="clip23"><rect x="43" y="326" width="22" height="22"/></clipPath></defs><g clip-path="url(#clip0)"><path d="M0 0 666.667 0 666.667 375 0 375Z" fill="#FFFFFF" transform="scale(1.0005 1)"/><path d="M0 0 666.667 0 666.667 375 0 375ZM26.865 26.865 26.865 348.135 639.802 348.135 639.802 26.865Z" fill="url(#fill1)" fill-rule="evenodd" transform="scale(1.0005 1)"/><path d="M0 0 666.667 0 666.667 375 0 375ZM26.865 26.865 26.865 348.135 639.802 348.135 639.802 26.865Z" fill="url(#fill2)" fill-rule="evenodd" transform="scale(1.0005 1)"/><path d="M0 0 666.667 0 666.667 375 0 375Z" fill="#FFFFFF" transform="scale(1.0005 1)"/><path d="M31.6667 37.1665C31.6667 35.0495 33.3828 33.3333 35.4998 33.3333L637.833 33.3333C639.951 33.3333 641.667 35.0495 641.667 37.1665L641.667 67.8335C641.667 69.9505 639.951 71.6667 637.833 71.6667L35.4998 71.6667C33.3828 71.6667 31.6667 69.9505 31.6667 67.8335Z" fill="#F2F2F2" fill-rule="evenodd" transform="scale(1.0005 1)"/><g clip-path="url(#clip3)"><g clip-path="url(#clip4)"><g clip-path="url(#clip5)"><path d="M55.2691 47.5043C55.2691 48.3507 54.5963 49.0234 53.75 49.0234 52.9037 49.0234 52.2309 48.3507 52.2309 47.5043 52.2309 46.658 52.9037 45.9852 53.75 45.9852 54.5963 45.9852 55.2691 46.6797 55.2691 47.5043" fill="#4D4EE6" transform="scale(1.0005 1)"/><path d="M61.3455 48.3724C61.3455 49.2188 60.6727 49.8915 59.8264 49.8915 58.98 49.8915 58.3073 49.2188 58.3073 48.3724 58.3073 47.526 58.98 46.8533 59.8264 46.8533 60.6727 46.8533 61.3455 47.526 61.3455 48.3724" fill="#4D4EE6" transform="scale(1.0005 1)"/><path d="M49.1927 48.3724C49.1927 49.2188 48.52 49.8915 47.6736 49.8915 46.8272 49.8915 46.1545 49.2188 46.1545 48.3724 46.1545 47.526 46.8272 46.8533 47.6736 46.8533 48.52 46.8533 49.1927 47.526 49.1927 48.3724" fill="#4D4EE6" transform="scale(1.0005 1)"/><path d="M45.1997 58.1814C45.1997 55.013 49.0191 52.4522 53.75 52.4522 58.4592 52.4522 62.3003 55.013 62.3003 58.1814L45.1997 58.1814Z" fill="#4D4EE6" transform="scale(1.0005 1)"/><path d="M47.1528 53.2552C48.0643 52.6476 49.1276 52.1702 50.2778 51.8663L50.2778 51.6276C50.2778 51.3889 50.1692 51.1502 50.0173 50.9982 49.9522 50.9332 49.8003 50.8463 49.605 50.7596 48.4115 50.1953 47.0008 50.1953 45.7856 50.7378 45.5686 50.8247 45.395 50.9332 45.3082 50.9982 45.1779 51.1502 45.0694 51.3889 45.0694 51.6276L45.0694 55.3168C45.5686 54.5573 46.263 53.8412 47.1528 53.2552" fill="#4D4EE6" transform="scale(1.0005 1)"/><path d="M56.3542 51.6493 56.3542 50.7596C56.3542 50.5208 56.2457 50.2821 56.0938 50.1302 56.0287 50.0651 55.8768 49.9783 55.6814 49.8915 54.4878 49.3272 53.0772 49.3272 51.862 49.8698 51.645 49.9566 51.4713 50.0651 51.3846 50.1302 51.2109 50.2821 51.1242 50.5208 51.1242 50.7596L51.1242 51.6493C51.9705 51.4757 52.8385 51.3889 53.7283 51.3889 54.6181 51.3889 55.5078 51.4974 56.3542 51.6493" fill="#4D4EE6" transform="scale(1.0005 1)"/><path d="M62.4306 55.3168 62.4306 51.6276C62.4306 51.3889 62.3221 51.1502 62.1702 50.9982 62.105 50.9332 61.9532 50.8463 61.7578 50.7596 60.5643 50.1953 59.1537 50.1953 57.9383 50.7378 57.7213 50.8247 57.5477 50.9332 57.4609 50.9982 57.2873 51.1502 57.2005 51.3889 57.2005 51.6276L57.2005 51.8663C58.3507 52.1702 59.4141 52.6476 60.3255 53.2552 61.237 53.8412 61.9314 54.5573 62.4306 55.3168" fill="#4D4EE6" transform="scale(1.0005 1)"/></g></g></g><text font-family="Avenir Next LT Pro,Avenir Next LT Pro_MSFontService,sans-serif" font-weight="400" font-size="13" transform="matrix(0.83375 0 0 0.833333 79.4284 57)">Week </text><text font-family="Avenir Next LT Pro,Avenir Next LT Pro_MSFontService,sans-serif" font-weight="400" font-size="13" transform="matrix(0.83375 0 0 0.833333 110.277 57)">1</text><text font-family="Avenir Next LT Pro,Avenir Next LT Pro_MSFontService,sans-serif" font-weight="400" font-size="13" transform="matrix(0.83375 0 0 0.833333 117.44 57)">-</text><text font-family="Avenir Next LT Pro,Avenir Next LT Pro_MSFontService,sans-serif" font-weight="400" font-size="13" transform="matrix(0.83375 0 0 0.833333 120.995 57)">3</text><text font-family="Avenir Next LT Pro,Avenir Next LT Pro_MSFontService,sans-serif" font-weight="400" font-size="15" transform="matrix(0.83375 0 0 0.833333 354.105 57)">Preparing for project proposal</text><path d="M31.6667 84.5833C31.6667 82.5122 33.3455 80.8333 35.4165 80.8333L637.917 80.8333C639.987 80.8333 641.667 82.5122 641.667 84.5833L641.667 114.583C641.667 116.654 639.987 118.333 637.917 118.333L35.4165 118.333C33.3455 118.333 31.6667 116.654 31.6667 114.583Z" fill="#F2F2F2" fill-rule="evenodd" transform="scale(1.0005 1)"/><g clip-path="url(#clip6)"><g clip-path="url(#clip7)"><g clip-path="url(#clip8)"><path d="M46.9141 107.135C46.7622 107.287 46.5668 107.331 46.3715 107.244 46.1762 107.158 46.0677 106.983 46.0677 106.788 46.0677 106.592 46.1979 106.397 46.3715 106.332 46.5668 106.246 46.7622 106.289 46.9141 106.441 47.1093 106.615 47.1093 106.94 46.9141 107.135ZM62.2352 92.8342 60.4774 94.5917 59.0885 94.2233 58.7413 92.8558 60.4992 91.0983C59.4575 90.7075 58.2856 90.9458 57.4609 91.6842 56.6362 92.4433 56.3107 93.5717 56.5929 94.6575L45.5252 105.725C45.1346 106.093 44.9827 106.658 45.1128 107.179 45.2431 107.7 45.6554 108.112 46.1762 108.243 46.6971 108.372 47.2396 108.221 47.6302 107.83L58.6979 96.7625C59.783 97.0442 60.9115 96.7183 61.671 95.8942 62.4088 95.0692 62.6476 93.8758 62.2352 92.8342Z" fill="#454B78" transform="scale(1.0005 1)"/><path d="M62.1484 105.725 56.5495 100.126 54.2925 102.382 59.7179 107.808 59.9132 108.003 59.9349 107.982C60.5643 108.438 61.4323 108.351 61.9748 107.808 62.5173 107.244 62.5825 106.376 62.1484 105.725L62.1484 105.725Z" fill="#454B78" transform="scale(1.0005 1)"/><path d="M48.2378 93.4633 48.2596 93.4417 47.6953 92.4 45.829 90.9025 45.0694 91.6625 46.5668 93.5283 47.6085 94.0925 47.6302 94.0708 51.7752 98.2158 52.3828 97.6083Z" fill="#454B78" transform="scale(1.0005 1)"/></g></g></g><text font-family="Avenir Next LT Pro,Avenir Next LT Pro_MSFontService,sans-serif" font-weight="400" font-size="13" transform="matrix(0.83375 0 0 0.833333 79.4284 104)">Week </text><text font-family="Avenir Next LT Pro,Avenir Next LT Pro_MSFontService,sans-serif" font-weight="400" font-size="13" transform="matrix(0.83375 0 0 0.833333 110.277 104)">4</text><text font-family="Avenir Next LT Pro,Avenir Next LT Pro_MSFontService,sans-serif" font-weight="400" font-size="15" transform="matrix(0.83375 0 0 0.833333 354.105 104)">Rewriting and fixing the proposal</text><path d="M31.6667 132.083C31.6667 130.012 33.3455 128.333 35.4165 128.333L637.917 128.333C639.987 128.333 641.667 130.012 641.667 132.083L641.667 162.083C641.667 164.154 639.987 165.833 637.917 165.833L35.4165 165.833C33.3455 165.833 31.6667 164.154 31.6667 162.083Z" fill="#F2F2F2" fill-rule="evenodd" transform="scale(1.0005 1)"/><g clip-path="url(#clip9)"><g clip-path="url(#clip10)"><g clip-path="url(#clip11)"><path d="M62.9948 144.544 61.8663 144.132 61.8663 141.767 62.9948 141.289 55.3559 138.467 46.0677 141.723C45.1779 142.158 45.1562 143.351 45.1562 144.327 45.1562 144.652 45.1997 144.978 45.2647 145.283 44.5269 145.759 44.5052 146.867 44.5052 147.799 44.5052 148.559 44.6788 149.253 45.1562 149.688 45.0477 150.057 45.1128 150.512 45.1128 151.055 45.1128 152.032 45.3732 152.921 46.2413 153.225L52.2743 155.721 62.9514 151.293 61.8229 150.881 61.8229 148.494 62.9514 148.017 61.2152 147.366 61.2152 145.283 62.9948 144.544ZM46.3282 143.243 52.3611 145.607 61.02 142.113 61.02 143.98 52.3611 147.582 46.3282 145.195 46.3282 143.243ZM60.9766 150.729 52.3177 154.31 46.263 151.923 46.263 150.23 51.6667 152.443 60.9982 148.754 60.9766 150.729ZM60.3689 147.474 51.7101 151.055 45.6771 148.667 45.6771 146.714 51.8837 149.188 60.3907 145.629 60.3907 147.474Z" fill="#A3A3C1" transform="scale(1.0005 1)"/></g></g></g><text font-family="Avenir Next LT Pro,Avenir Next LT Pro_MSFontService,sans-serif" font-weight="400" font-size="13" transform="matrix(0.83375 0 0 0.833333 79.4284 151)">Week </text><text font-family="Avenir Next LT Pro,Avenir Next LT Pro_MSFontService,sans-serif" font-weight="400" font-size="13" transform="matrix(0.83375 0 0 0.833333 110.277 151)">5</text><text font-family="Avenir Next LT Pro,Avenir Next LT Pro_MSFontService,sans-serif" font-weight="400" font-size="15" transform="matrix(0.83375 0 0 0.833333 354.105 151)">Research and preparation for the presentation</text><path d="M31.6667 179.583C31.6667 177.512 33.3455 175.833 35.4165 175.833L637.917 175.833C639.987 175.833 641.667 177.512 641.667 179.583L641.667 209.583C641.667 211.654 639.987 213.333 637.917 213.333L35.4165 213.333C33.3455 213.333 31.6667 211.654 31.6667 209.583Z" fill="#F2F2F2" fill-rule="evenodd" transform="scale(1.0005 1)"/><g clip-path="url(#clip12)"><g clip-path="url(#clip13)"><g clip-path="url(#clip14)"><path d="M62.3872 188.29 48.4982 188.29C48.0208 188.29 47.6302 188.681 47.6302 189.158L47.6302 192.305C47.8689 192.24 48.151 192.196 48.4115 192.196 48.5851 192.196 48.7587 192.217 48.9323 192.24L48.9323 189.592 61.9532 189.592 61.9532 197.838 54.5963 197.838 53.3593 199.141 62.3872 199.141C62.8646 199.141 63.2552 198.75 63.2552 198.272L63.2552 189.158C63.2552 188.681 62.8646 188.29 62.3872 188.29" fill="#7162FE" transform="scale(1.0005 1)"/><path d="M48.4332 196.753C49.4532 196.753 50.2778 195.929 50.2778 194.909 50.2778 193.889 49.4532 193.064 48.4332 193.064 47.4132 193.064 46.5885 193.889 46.5885 194.909 46.5668 195.929 47.4132 196.753 48.4332 196.753" fill="#7162FE" transform="scale(1.0005 1)"/><path d="M55.5295 194.605C55.2474 194.171 54.6832 194.062 54.2492 194.323 54.1623 194.367 54.1189 194.453 54.0755 194.497L50.9071 197.795C50.6033 197.643 50.2778 197.513 49.9522 197.404 49.4532 197.318 48.9323 197.209 48.4332 197.209 47.934 197.209 47.4132 197.296 46.9141 197.448 46.1762 197.643 45.5252 198.012 44.9827 198.467 44.8524 198.598 44.7439 198.793 44.7005 198.967L44.2448 200.877 50.7335 200.877 50.7335 200.855 52.5782 198.707 55.421 195.712C55.6814 195.452 55.7682 194.952 55.5295 194.605" fill="#7162FE" transform="scale(1.0005 1)"/></g></g></g><text font-family="Avenir Next LT Pro,Avenir Next LT Pro_MSFontService,sans-serif" font-weight="400" font-size="13" transform="matrix(0.83375 0 0 0.833333 79.4284 198)">Week </text><text font-family="Avenir Next LT Pro,Avenir Next LT Pro_MSFontService,sans-serif" font-weight="400" font-size="13" transform="matrix(0.83375 0 0 0.833333 110.277 198)">6</text><text font-family="Avenir Next LT Pro,Avenir Next LT Pro_MSFontService,sans-serif" font-weight="400" font-size="13" transform="matrix(0.83375 0 0 0.833333 120.219 198)">-</text><text font-family="Avenir Next LT Pro,Avenir Next LT Pro_MSFontService,sans-serif" font-weight="400" font-size="13" transform="matrix(0.83375 0 0 0.833333 126.552 198)">7</text><text font-family="Avenir Next LT Pro,Avenir Next LT Pro_MSFontService,sans-serif" font-weight="400" font-size="15" transform="matrix(0.83375 0 0 0.833333 354.105 198)">Constructing and finalizing the presentation</text><path d="M31.6667 227.083C31.6667 225.013 33.3455 223.333 35.4165 223.333L637.917 223.333C639.987 223.333 641.667 225.013 641.667 227.083L641.667 257.083C641.667 259.154 639.987 260.833 637.917 260.833L35.4165 260.833C33.3455 260.833 31.6667 259.154 31.6667 257.083Z" fill="#F2F2F2" fill-rule="evenodd" transform="scale(1.0005 1)"/><g clip-path="url(#clip15)"><g clip-path="url(#clip16)"><g clip-path="url(#clip17)"><path d="M47.6736 233.446 48.9757 233.446 48.9757 250.764 47.6736 250.764Z" fill="#1EBE9B" transform="scale(1.0005 1)"/><path d="M57.8732 239.913 51.7968 239.913 51.7968 238.611 57.8732 238.611 57.8732 239.913ZM56.5712 242.083 53.2075 242.083 53.2075 241.215 56.5712 241.215 56.5712 242.083ZM58.9583 233.402 49.8438 233.446 49.8438 250.764 58.9583 250.764C59.4357 250.764 59.8264 250.373 59.8264 249.896L59.8264 234.271C59.8264 233.793 59.4357 233.402 58.9583 233.402Z" fill="#1EBE9B" transform="scale(1.0005 1)"/></g></g></g><text font-family="Avenir Next LT Pro,Avenir Next LT Pro_MSFontService,sans-serif" font-weight="400" font-size="13" transform="matrix(0.83375 0 0 0.833333 79.4284 246)">Week </text><text font-family="Avenir Next LT Pro,Avenir Next LT Pro_MSFontService,sans-serif" font-weight="400" font-size="13" transform="matrix(0.83375 0 0 0.833333 110.277 246)">8</text><text font-family="Avenir Next LT Pro,Avenir Next LT Pro_MSFontService,sans-serif" font-weight="400" font-size="13" transform="matrix(0.83375 0 0 0.833333 120.219 246)">-</text><text font-family="Avenir Next LT Pro,Avenir Next LT Pro_MSFontService,sans-serif" font-weight="400" font-size="13" transform="matrix(0.83375 0 0 0.833333 126.552 246)">9</text><text font-family="Avenir Next LT Pro,Avenir Next LT Pro_MSFontService,sans-serif" font-weight="400" font-size="15" transform="matrix(0.83375 0 0 0.833333 354.105 246)">Writing the final report and proof reading</text><path d="M31.6667 273.833C31.6667 271.716 33.3828 270 35.4998 270L637.833 270C639.951 270 641.667 271.716 641.667 273.833L641.667 304.5C641.667 306.617 639.951 308.333 637.833 308.333L35.4998 308.333C33.3828 308.333 31.6667 306.617 31.6667 304.5Z" fill="#F2F2F2" fill-rule="evenodd" transform="scale(1.0005 1)"/><g clip-path="url(#clip18)"><g clip-path="url(#clip19)"><g clip-path="url(#clip20)"><path d="M48.3247 296.962 48.3247 282.205 53.75 282.205 53.75 286.762 59.1753 286.762 59.1753 296.962 48.3247 296.962ZM55.0521 282.747 57.7648 285.46 55.0521 285.46 55.0521 282.747ZM55.0521 280.902 47.0226 280.902 47.0226 298.264 60.4774 298.264 60.4774 285.677 55.0521 280.902Z" fill="#4D4EE6" transform="scale(1.0005 1)"/><path d="M49.6268 288.932 57.8732 288.932 57.8732 289.8 49.6268 289.8Z" fill="#4D4EE6" transform="scale(1.0005 1)"/><path d="M49.6268 287.196 52.4479 287.196 52.4479 288.064 49.6268 288.064Z" fill="#4D4EE6" transform="scale(1.0005 1)"/><path d="M49.6268 290.668 57.8732 290.668 57.8732 291.537 49.6268 291.537Z" fill="#4D4EE6" transform="scale(1.0005 1)"/><path d="M49.6268 292.404 57.8732 292.404 57.8732 293.272 49.6268 293.272Z" fill="#4D4EE6" transform="scale(1.0005 1)"/><path d="M49.6268 294.141 57.8732 294.141 57.8732 295.008 49.6268 295.008Z" fill="#4D4EE6" transform="scale(1.0005 1)"/></g></g></g><text font-family="Avenir Next LT Pro,Avenir Next LT Pro_MSFontService,sans-serif" font-weight="400" font-size="13" transform="matrix(0.83375 0 0 0.833333 79.4284 293)">Week </text><text font-family="Avenir Next LT Pro,Avenir Next LT Pro_MSFontService,sans-serif" font-weight="400" font-size="13" transform="matrix(0.83375 0 0 0.833333 110.277 293)">10</text><text font-family="Avenir Next LT Pro,Avenir Next LT Pro_MSFontService,sans-serif" font-weight="400" font-size="15" transform="matrix(0.83375 0 0 0.833333 354.105 293)">Finalizing the project report and create the figma</text><path d="M31.6667 321.333C31.6667 319.216 33.3828 317.5 35.4998 317.5L637.833 317.5C639.951 317.5 641.667 319.216 641.667 321.333L641.667 352C641.667 354.117 639.951 355.833 637.833 355.833L35.4998 355.833C33.3828 355.833 31.6667 354.117 31.6667 352Z" fill="#F2F2F2" fill-rule="evenodd" transform="scale(1.0005 1)"/><g clip-path="url(#clip21)"><g clip-path="url(#clip22)"><g clip-path="url(#clip23)"><path d="M61.1285 340.556 46.3715 340.556 46.3715 331.007 61.1285 331.007 61.1285 340.556ZM61.5625 329.705 45.9375 329.705C45.4601 329.705 45.0694 330.096 45.0694 330.573L45.0694 340.99C45.0694 341.467 45.4601 341.857 45.9375 341.857L52.0139 341.857 52.0139 343.16 49.8438 343.16 49.8438 344.462 57.6562 344.462 57.6562 343.16 55.4861 343.16 55.4861 341.857 61.5625 341.857C62.0399 341.857 62.4306 341.467 62.4306 340.99L62.4306 330.573C62.4306 330.096 62.0399 329.705 61.5625 329.705Z" fill="#454B78" transform="scale(1.0005 1)"/></g></g></g><text font-family="Avenir Next LT Pro,Avenir Next LT Pro_MSFontService,sans-serif" font-weight="400" font-size="13" transform="matrix(0.83375 0 0 0.833333 79.4284 341)">Week </text><text font-family="Avenir Next LT Pro,Avenir Next LT Pro_MSFontService,sans-serif" font-weight="400" font-size="13" transform="matrix(0.83375 0 0 0.833333 110.277 341)">11</text><text font-family="Avenir Next LT Pro,Avenir Next LT Pro_MSFontService,sans-serif" font-weight="400" font-size="15" transform="matrix(0.83375 0 0 0.833333 354.105 341)">Create the web and practice the presentation</text></g></svg>